# xmcd
#
# Track frame offsets: 
#        150
#        19910
#        37055
#        55387
#        72212
#        87279
#        103725
#        117579
#        140290
#        155597
#        174675
#        190780
#
# Disc length: 2796 seconds
#
# Revision: 4
# Processed by: cddbd v1.5.2PL0 Copyright (c) Steve Scherf et al.
# Submitted via: ExactAudioCopy v0.95a4
#
DISCID=ab0aea0c
DTITLE=Debbie Davies - I Got That Feeling
DYEAR=1997
DGENRE=Blues
TTITLE0=Howlin' At The Moon
TTITLE1=Tired Angels
TTITLE2=I Got That Feeling
TTITLE3=Watch Your Step
TTITLE4=Let The Heartaches Begin
TTITLE5=Lucky In Love
TTITLE6=Bad For Me
TTITLE7=Where You Keep The Love In This Town?
TTITLE8=Rockin' You Baby
TTITLE9=Homework
TTITLE10=Talk To Me
TTITLE11=I Could Get Used To This
EXTD=Year: 1997\n\n\n\n                                               
EXTD=http://debbiedavis.com
EXTT0=
EXTT1=
EXTT2=
EXTT3=
EXTT4=
EXTT5=
EXTT6=
EXTT7=
EXTT8=
EXTT9=
EXTT10=
EXTT11=
PLAYORDER=
